<svg xmlns="http://www.w3.org/2000/svg" viewBox="0 0 460 150" width="460" height="150" role="img" aria-label="Solver residuals converging">
<style>
.g{stroke:#8b949e;stroke-width:.5;opacity:.25}
.ax{stroke:#8b949e;stroke-width:1;opacity:.55}
.tk,.lg{font:9px ui-monospace,SFMono-Regular,Menlo,monospace;fill:#8b949e}
.tk{text-anchor:end}
.r{fill:none;stroke-width:1.7;stroke-linejoin:round;stroke-linecap:round;
    animation:draw 6s cubic-bezier(.3,.6,.3,1) infinite}
@keyframes draw{0%{stroke-dashoffset:var(--l,2000);opacity:.15}
                 8%{opacity:1} 62%,88%{stroke-dashoffset:0;opacity:1}
                 100%{stroke-dashoffset:0;opacity:0}}
</style>
<line class="g" x1="38" y1="126.0" x2="450" y2="126.0"/><line class="g" x1="38" y1="107.0" x2="450" y2="107.0"/><line class="g" x1="38" y1="88.0" x2="450" y2="88.0"/><line class="g" x1="38" y1="69.0" x2="450" y2="69.0"/><line class="g" x1="38" y1="50.0" x2="450" y2="50.0"/><line class="g" x1="38" y1="31.0" x2="450" y2="31.0"/><line class="g" x1="38" y1="12.0" x2="450" y2="12.0"/><text x="32" y="129.0" class="tk">1e-6</text><text x="32" y="91.0" class="tk">1e-4</text><text x="32" y="53.0" class="tk">1e-2</text><text x="32" y="15.0" class="tk">1e-0</text>
<line class="ax" x1="38" y1="12" x2="38" y2="126"/>
<line class="ax" x1="38" y1="126" x2="450" y2="126"/>
<text x="450" y="141" class="tk">iterations</text>
<path class="r" d="M38.0 23.3L41.2 20.6L44.3 22.0L47.5 23.0L50.7 24.4L53.8 21.9L57.0 22.8L60.2 24.6L63.4 25.0L66.5 25.5L69.7 28.6L72.9 26.1L76.0 26.6L79.2 28.2L82.4 26.4L85.5 29.6L88.7 29.7L91.9 31.2L95.0 28.0L98.2 30.0L101.4 29.8L104.6 30.4L107.7 35.1L110.9 32.7L114.1 31.8L117.2 35.9L120.4 33.9L123.6 37.5L126.7 34.4L129.9 38.5L133.1 38.4L136.2 37.9L139.4 39.5L142.6 39.9L145.8 39.8L148.9 42.5L152.1 40.7L155.3 39.9L158.4 43.8L161.6 44.3L164.8 42.6L167.9 42.9L171.1 44.5L174.3 47.7L177.4 46.5L180.6 45.7L183.8 46.7L187.0 50.2L190.1 49.3L193.3 47.6L196.5 48.6L199.6 51.0L202.8 52.2L206.0 52.3L209.1 54.7L212.3 51.9L215.5 55.0L218.6 55.5L221.8 55.0L225.0 55.8L228.2 56.7L231.3 58.3L234.5 56.4L237.7 57.0L240.8 60.8L244.0 59.3L247.2 62.3L250.3 59.5L253.5 61.9L256.7 63.1L259.8 63.0L263.0 64.2L266.2 64.8L269.4 67.1L272.5 65.1L275.7 67.2L278.9 68.2L282.0 66.8L285.2 66.9L288.4 70.0L291.5 71.3L294.7 70.4L297.9 71.6L301.0 71.2L304.2 71.6L307.4 72.8L310.6 73.5L313.7 75.7L316.9 75.3L320.1 75.5L323.2 77.5L326.4 77.9L329.6 76.4L332.7 78.1L335.9 78.6L339.1 78.7L342.2 80.9L345.4 80.0L348.6 81.8L351.8 83.1L354.9 82.8L358.1 85.1L361.3 84.8L364.4 83.9L367.6 86.6L370.8 85.2L373.9 86.6L377.1 86.9L380.3 89.5L383.4 88.5L386.6 88.4L389.8 90.1L393.0 90.8L396.1 91.2L399.3 91.9L402.5 91.7L405.6 92.5L408.8 95.4L412.0 94.1L415.1 94.5L418.3 96.7L421.5 97.7L424.6 96.3L427.8 98.0L431.0 98.3L434.2 99.3L437.3 99.6L440.5 100.6L443.7 101.9L446.8 102.8L450.0 103.7" stroke="#2f81f7" style="--l:469;stroke-dasharray:469;stroke-dashoffset:469;animation-delay:0.00s"/><path class="r" d="M38.0 30.2L41.2 30.4L44.3 29.3L47.5 30.0L50.7 27.2L53.8 29.9L57.0 30.3L60.2 30.9L63.4 31.5L66.5 32.1L69.7 33.7L72.9 31.5L76.0 32.6L79.2 36.5L82.4 34.2L85.5 35.3L88.7 34.5L91.9 37.7L95.0 36.0L98.2 38.8L101.4 39.3L104.6 40.1L107.7 42.8L110.9 43.5L114.1 42.6L117.2 41.0L120.4 43.2L123.6 45.9L126.7 44.7L129.9 44.4L133.1 48.7L136.2 46.4L139.4 49.9L142.6 49.0L145.8 50.6L148.9 48.8L152.1 49.6L155.3 49.9L158.4 52.2L161.6 53.1L164.8 53.8L167.9 54.6L171.1 56.7L174.3 55.7L177.4 56.5L180.6 55.2L183.8 59.0L187.0 56.5L190.1 58.7L193.3 59.0L196.5 60.2L199.6 62.0L202.8 62.6L206.0 64.6L209.1 64.3L212.3 63.9L215.5 63.6L218.6 65.4L221.8 67.9L225.0 65.8L228.2 66.6L231.3 67.4L234.5 69.7L237.7 71.3L240.8 70.0L244.0 71.2L247.2 72.6L250.3 74.3L253.5 73.3L256.7 73.8L259.8 75.2L263.0 75.7L266.2 76.0L269.4 76.4L272.5 79.3L275.7 77.8L278.9 79.5L282.0 82.0L285.2 81.3L288.4 81.0L291.5 84.0L294.7 82.6L297.9 85.7L301.0 86.9L304.2 84.4L307.4 85.8L310.6 87.5L313.7 87.8L316.9 87.5L320.1 90.4L323.2 89.7L326.4 90.4L329.6 93.2L332.7 92.3L335.9 93.7L339.1 93.9L342.2 96.5L345.4 95.9L348.6 95.2L351.8 95.9L354.9 99.4L358.1 99.3L361.3 99.9L364.4 99.1L367.6 99.6L370.8 100.6L373.9 102.3L377.1 102.0L380.3 104.4L383.4 103.7L386.6 106.7L389.8 106.9L393.0 106.1L396.1 108.1L399.3 108.9L402.5 109.4L405.6 110.9L408.8 111.8L412.0 111.8L415.1 111.5L418.3 112.6L421.5 113.6L424.6 113.8L427.8 115.6L431.0 115.8L434.2 116.5L437.3 117.3L440.5 118.5L443.7 119.8L446.8 120.1L450.0 120.7" stroke="#3fb950" style="--l:461;stroke-dasharray:461;stroke-dashoffset:461;animation-delay:0.22s"/><path class="r" d="M38.0 34.9L41.2 34.6L44.3 35.8L47.5 33.1L50.7 35.3L53.8 34.3L57.0 36.1L60.2 39.8L63.4 36.6L66.5 41.4L69.7 40.9L72.9 39.2L76.0 40.4L79.2 43.7L82.4 44.8L85.5 44.7L88.7 44.0L91.9 44.9L95.0 47.1L98.2 48.5L101.4 48.7L104.6 47.0L107.7 46.9L110.9 50.6L114.1 51.4L117.2 52.5L120.4 48.9L123.6 54.2L126.7 51.4L129.9 54.2L133.1 53.2L136.2 53.6L139.4 56.0L142.6 58.3L145.8 58.0L148.9 57.4L152.1 57.1L155.3 61.5L158.4 59.9L161.6 62.1L164.8 62.8L167.9 62.3L171.1 65.7L174.3 66.6L177.4 66.6L180.6 66.6L183.8 67.9L187.0 68.4L190.1 69.0L193.3 68.9L196.5 71.0L199.6 70.9L202.8 71.4L206.0 72.2L209.1 71.9L212.3 73.3L215.5 76.6L218.6 75.4L221.8 76.5L225.0 75.5L228.2 78.8L231.3 80.9L234.5 78.3L237.7 78.9L240.8 80.1L244.0 81.2L247.2 83.7L250.3 82.6L253.5 83.7L256.7 84.4L259.8 88.1L263.0 87.9L266.2 87.9L269.4 87.6L272.5 88.1L275.7 90.8L278.9 91.1L282.0 91.0L285.2 93.2L288.4 93.7L291.5 96.2L294.7 95.5L297.9 95.2L301.0 96.6L304.2 98.3L307.4 98.3L310.6 98.0L313.7 100.2L316.9 101.1L320.1 103.2L323.2 101.3L326.4 103.7L329.6 104.0L332.7 104.3L335.9 107.3L339.1 105.4L342.2 106.0L345.4 108.0L348.6 110.3L351.8 110.0L354.9 112.2L358.1 112.1L361.3 113.4L364.4 112.0L367.6 114.5L370.8 114.1L373.9 115.7L377.1 116.3L380.3 117.7L383.4 118.8L386.6 119.0L389.8 120.4L393.0 119.4L396.1 122.6L399.3 122.1L402.5 123.0L405.6 123.3L408.8 125.6L412.0 125.2L415.1 126.0L418.3 126.0L421.5 126.0L424.6 126.0L427.8 126.0L431.0 126.0L434.2 126.0L437.3 126.0L440.5 126.0L443.7 126.0L446.8 126.0L450.0 126.0" stroke="#d29922" style="--l:465;stroke-dasharray:465;stroke-dashoffset:465;animation-delay:0.44s"/>
<rect x="44" y="18" width="16" height="2.5" fill="#2f81f7" rx="1"/><text x="65" y="23" class="lg">continuity</text><rect x="148" y="18" width="16" height="2.5" fill="#3fb950" rx="1"/><text x="169" y="23" class="lg">x-velocity</text><rect x="252" y="18" width="16" height="2.5" fill="#d29922" rx="1"/><text x="273" y="23" class="lg">k</text>
</svg>
